<svg xmlns="http://www.w3.org/2000/svg" viewBox="0 0 212.46 85.33"><defs><style>.cls-1,.cls-2{fill:#cd345c;}.cls-2{font-size:47.39px;font-family:NanumSquareRoundEB, NanumSquareRound;font-weight:700;letter-spacing:-0.05em;}</style></defs><title>찜하기 전</title><g id="Layer_2" data-name="Layer 2"><g id="Layer_1-2" data-name="Layer 1"><path class="cls-1" d="M200.46,7a5,5,0,0,1,5,5V73.33a5,5,0,0,1-5,5H12a5,5,0,0,1-5-5V12a5,5,0,0,1,5-5H200.46m0-7H12A12,12,0,0,0,0,12V73.33a12,12,0,0,0,12,12H200.46a12,12,0,0,0,12-12V12a12,12,0,0,0-12-12Z"/><text class="cls-2" transform="translate(19.98 59.52)">찜하기 ♥</text></g></g></svg>