<svg width="20" height="18" viewBox="0 0 20 18" fill="none" xmlns="http://www.w3.org/2000/svg">
<g clip-path="url(#clip0_72_744)">
<path d="M18.3368 6.02926L13.2639 5.28043L10.9965 0.625739C10.5903 -0.203949 9.4132 -0.214496 9.00348 0.625739L6.73612 5.28043L1.6632 6.02926C0.753475 6.16285 0.388892 7.2984 1.04861 7.94879L4.71875 11.5699L3.8507 16.6851C3.69445 17.6097 4.65625 18.3023 5.46181 17.8699L10 15.4547L14.5382 17.8699C15.3438 18.2988 16.3056 17.6097 16.1493 16.6851L15.2813 11.5699L18.9514 7.94879C19.6111 7.2984 19.2465 6.16285 18.3368 6.02926ZM13.4931 10.9793L14.316 15.8449L10 13.5492L5.68403 15.8449L6.50695 10.9793L3.01389 7.53395L7.84028 6.82379L10 2.3941L12.1597 6.82379L16.9861 7.53395L13.4931 10.9793Z" fill="#0D3584"/>
</g>
<defs>
<clipPath id="clip0_72_744">
<rect width="20" height="18" fill="white"/>
</clipPath>
</defs>
</svg>
