<svg width="16" height="16" viewBox="0 0 16 16" fill="none" xmlns="http://www.w3.org/2000/svg">
<path d="M14.1404 8.70481L14.0422 8.87105L14.0813 9.06013C14.2028 9.64915 14.1039 10.2145 13.849 10.692L13.7743 10.8317L13.7938 10.989C13.87 11.6039 13.6885 12.25 13.3429 12.728L13.2509 12.8553L13.2482 13.0124C13.2351 13.7826 12.9919 14.3833 12.5391 14.7961C12.0816 15.2132 11.3426 15.5 10.2188 15.5L9.87447 15.4998L9.52437 15.4997C7.99226 15.4997 7.01144 15.2115 6.24083 14.9197C6.0888 14.8622 5.92672 14.7968 5.76541 14.7318C5.54577 14.6433 5.32756 14.5553 5.13812 14.4883C4.77734 14.3609 4.40085 14.2612 3.9793 14.2517L3.58339 14.2428L3.48405 14.6261C3.42823 14.8415 3.23198 15 3 15H1C0.723861 15 0.5 14.7761 0.5 14.5V7C0.5 6.72386 0.723861 6.5 1 6.5H4.08625H4.27581L4.41772 6.37433C4.76348 6.06816 5.15689 5.54528 5.51782 5.06556L5.51796 5.06538L5.53887 5.03759C5.91328 4.53992 6.26972 4.06614 6.58855 3.7473C6.72927 3.60659 6.80384 3.41683 6.84822 3.28679C6.89847 3.13953 6.94147 2.96753 6.98146 2.79819C6.996 2.7366 7.01042 2.67428 7.02496 2.61139C7.09411 2.31245 7.16618 2.00086 7.26851 1.69567C7.39252 1.32586 7.54436 1.02049 7.73966 0.812262C7.91944 0.620585 8.14452 0.5 8.4775 0.5C9.28724 0.5 9.88459 0.723033 10.2825 1.13201C10.6821 1.54278 10.9547 2.21722 10.9547 3.27281C10.9547 3.77378 10.8484 4.19121 10.7114 4.54792L10.4505 5.22719H11.1781H12.3181C13.5454 5.22719 14.5 6.28663 14.5 7.40156C14.5 7.90344 14.3728 8.31139 14.1404 8.70481ZM3.5 13.3178V13.8178H4C4.68879 13.8178 5.33941 14.0444 6.14388 14.3245C6.19746 14.3432 6.25173 14.362 6.30673 14.3811C7.16485 14.6788 8.15472 14.9997 9.36375 14.9997H10.5456C11.165 14.9997 11.8041 14.8522 12.2455 14.385C12.6429 13.9643 12.7955 13.376 12.7363 12.6654C12.9695 12.4431 13.1382 12.1409 13.2284 11.8338C13.3263 11.501 13.3478 11.1107 13.2273 10.7333C13.6915 10.1145 13.7297 9.34293 13.4864 8.75193C13.5626 8.67022 13.6303 8.57911 13.6887 8.48487C13.8683 8.19542 14.0019 7.80905 14 7.40668C13.996 6.56239 13.2744 5.72719 12.3181 5.72719H9.6394C9.70819 5.48801 9.82188 5.25997 9.9577 4.99157L9.96342 4.98027C10.1836 4.54528 10.4547 4.00955 10.4547 3.27281C10.4547 3.26 10.4547 3.24687 10.4547 3.23342C10.4551 2.88797 10.4557 2.33681 10.2124 1.875C10.0764 1.61693 9.86732 1.38799 9.56251 1.2292C9.26444 1.07391 8.90264 1 8.4775 1H8.27039L8.12395 1.14645C7.88947 1.38092 7.76712 1.67789 7.68849 1.94518C7.62586 2.15805 7.57947 2.39685 7.5369 2.61601C7.52678 2.66811 7.51688 2.7191 7.50702 2.76836C7.39602 3.32322 7.26823 3.77466 6.94207 4.10082L6.94201 4.10089C6.70754 4.33544 6.45591 4.65503 6.21043 4.97795C6.13269 5.08023 6.05526 5.18323 5.97787 5.28619C5.80244 5.51957 5.62715 5.75277 5.44851 5.97694C5.1912 6.29983 4.95022 6.57372 4.73189 6.76364C4.49514 6.96957 4.37105 7 4.34125 7H4H3.5V7.5V13.3178ZM2 14.75C2.69036 14.75 3.25 14.1904 3.25 13.5C3.25 12.8096 2.69036 12.25 2 12.25C1.30964 12.25 0.75 12.8096 0.75 13.5C0.75 14.1904 1.30964 14.75 2 14.75Z" fill="#0D3584" stroke="#0D3584"/>
</svg>
